<svg width="50" height="77" viewBox="0 0 50 77" fill="none" xmlns="http://www.w3.org/2000/svg">
  <g clip-path="url(#clip0_1_108)">
    <path d="M0 8C0 3.58172 3.58172 0 8 0H50V77H8C3.58172 77 0 73.4183 0 69V8Z" fill="white"/>
    <ellipse cx="8" cy="45" rx="25" ry="26" fill="#00A5EA"/>
    <ellipse cx="46" cy="27.5" rx="25" ry="26.5" fill="#FFE600"/>
    <g filter="url(#filter0_b_1_108)">
      <path d="M0 8C0 3.58172 3.58172 0 8 0H50V77H8C3.58172 77 0 73.4183 0 69V8Z" fill="white" fill-opacity="0.4"/>
    </g>
    <g opacity="0.2">
      <path d="M8.871 11.86L9.663 7.57H17.583L13.425 31H8.673L12.039 11.86H8.871ZM23.9093 20.1782C23.1041 20.1782 22.3715 20.0462 21.7115 19.7822C21.0647 19.505 20.5499 19.1288 20.1671 18.6536C19.7975 18.1652 19.6127 17.6108 19.6127 16.9904C19.6127 16.898 19.6259 16.7462 19.6523 16.535H22.3451C22.3055 16.997 22.4441 17.3732 22.7609 17.6636C23.0777 17.9408 23.5265 18.0794 24.1073 18.0794C24.6353 18.0794 25.0709 17.987 25.4141 17.8022C25.7705 17.6042 25.9487 17.3204 25.9487 16.9508C25.9487 16.6208 25.7837 16.3568 25.4537 16.1588C25.1369 15.9608 24.6287 15.7364 23.9291 15.4856C23.2295 15.2348 22.6487 14.9906 22.1867 14.753C21.7247 14.5154 21.3287 14.1854 20.9987 13.763C20.6687 13.3406 20.5037 12.806 20.5037 12.1592C20.5037 11.5124 20.6885 10.9382 21.0581 10.4366C21.4409 9.935 21.9689 9.5456 22.6421 9.2684C23.3153 8.9912 24.0875 8.8526 24.9587 8.8526C25.7903 8.8526 26.5229 8.9912 27.1565 9.2684C27.7901 9.5456 28.2785 9.935 28.6217 10.4366C28.9781 10.925 29.1563 11.486 29.1563 12.1196C29.1563 12.278 29.1497 12.3968 29.1365 12.476H26.5625C26.6021 12.014 26.4701 11.6444 26.1665 11.3672C25.8629 11.09 25.4207 10.9514 24.8399 10.9514C24.3647 10.9514 23.9753 11.057 23.6717 11.2682C23.3681 11.4662 23.2163 11.7368 23.2163 12.08C23.2163 12.4232 23.3879 12.707 23.7311 12.9314C24.0743 13.1426 24.6023 13.3802 25.3151 13.6442C26.0279 13.9214 26.5955 14.1788 27.0179 14.4164C27.4535 14.6408 27.8297 14.9576 28.1465 15.3668C28.4633 15.7628 28.6217 16.2644 28.6217 16.8716C28.6217 17.5448 28.4171 18.1322 28.0079 18.6338C27.5987 19.1354 27.0377 19.5182 26.3249 19.7822C25.6121 20.0462 24.8069 20.1782 23.9093 20.1782ZM35.0353 16.6142C35.0221 16.6934 35.0155 16.799 35.0155 16.931C35.0155 17.195 35.0881 17.3864 35.2333 17.5052C35.3917 17.6108 35.6491 17.6636 36.0055 17.6636H37.3123L36.8965 20H35.1343C33.1543 20 32.1643 19.175 32.1643 17.525C32.1643 17.2082 32.1907 16.898 32.2435 16.5944L33.1741 11.3078H31.8673L32.2633 9.0308H33.5899L34.0651 6.3182H36.8569L36.3817 9.0308H38.8171L38.4211 11.3078H35.9659L35.0353 16.6142Z" fill="#0B254D"/>
    </g>
  </g>
  <defs>
<!--    <filter id="filter0_b_1_108" x="-100" y="-100" width="250" height="277" filterUnits="userSpaceOnUse" color-interpolation-filters="sRGB">-->
<!--      <feFlood flood-opacity="0" result="BackgroundImageFix"/>-->
<!--      <feGaussianBlur in="BackgroundImageFix" stdDeviation="50"/>-->
<!--      <feComposite in2="SourceAlpha" operator="in" result="effect1_backgroundBlur_1_108"/>-->
<!--      <feBlend mode="normal" in="SourceGraphic" in2="effect1_backgroundBlur_1_108" result="shape"/>-->
<!--    </filter>-->
    <clipPath id="clip0_1_108">
      <rect width="50" height="77" fill="white"/>
    </clipPath>
  </defs>
</svg>
